<?xml version="1.0" encoding="UTF-8"?>
<svg version="1.1" xmlns="http://www.w3.org/2000/svg" width="160" height="160">
<path d="M0 0 C24.80576735 -0.75388656 24.80576735 -0.75388656 34.99609375 3.11328125 C39.84705641 4.54522992 44.65947257 4.21861306 49.6640625 4.0625 C52.78757887 3.97577581 55.84442027 4.0858442 58.9609375 4.3125 C60.21849854 4.40301636 60.21849854 4.40301636 61.50146484 4.49536133 C63.12006306 4.61983238 64.73776189 4.75689951 66.35400391 4.90893555 C71.26404416 5.26628851 74.59471532 4.61855563 79.11132812 2.6965332 C82.0043411 1.62960378 84.69265287 1.67685772 87.75 1.75 C88.83796875 1.76546875 89.9259375 1.7809375 91.046875 1.796875 C93.51993691 1.96697979 95.63686685 2.28876575 98 3 C98 3.66 98 4.32 98 5 C94.04 6.98 90.08 8.96 86 11 C86.99 12.32 87.98 13.64 89 15 C89.39171753 16.65391846 89.72057545 18.32345271 90 20 C90.64097297 22.00838196 91.30899447 24.00827818 92 26 C95.86937461 37.15290329 96.11014068 45.24990472 91 56 C90.46117187 56.8353125 89.92234375 57.670625 89.3671875 58.53125 C87.30747119 63.75704453 87.76519568 68.75649846 87.9375 74.3125 C88.37537514 90.06668857 85.77079154 99.39626725 75 111 C73.33333333 112.66666667 71.66666667 114.33333333 70 116 C66.37706307 119.86558167 63.09879194 123.65477887 60.4375 128.25 C58.15944903 132.08195329 55.92649938 133.905867 52 136 C51.34 136 50.68 136 50 136 C50.495 139.465 50.495 139.465 51 143 C57.46891692 145.20218448 63.38698561 145.72260288 70.125 144.375 C73.81715098 143.89341509 76.50981576 144.81333736 80 146 C80.33 147.32 80.66 148.64 81 150 C79.02 149.34 77.04 148.68 75 148 C74.79375 148.61875 74.5875 149.2375 74.375 149.875 C72.38502553 152.9504151 70.52373395 153.20217345 67 154 C63.73143175 154.17202991 60.83330545 154.17778671 57.63012695 153.49438477 C54.8484702 152.97151695 52.30891035 152.8865424 49.48046875 152.90234375 C48.45888672 152.90556641 47.43730469 152.90878906 46.38476562 152.91210938 C45.32966797 152.92048828 44.27457031 152.92886719 43.1875 152.9375 C42.11306641 152.94201172 41.03863281 152.94652344 39.93164062 152.95117188 C37.28770317 152.96292271 34.64388048 152.97935213 32 153 C32.495 155.475 32.495 155.475 33 158 C30.03 158 27.06 158 24 158 C23.67 156.68 23.34 155.36 23 154 C22.00097656 154.01160156 21.00195312 154.02320313 19.97265625 154.03515625 C18.68230469 154.04417969 17.39195313 154.05320313 16.0625 154.0625 C14.77472656 154.07410156 13.48695312 154.08570313 12.16015625 154.09765625 C9 154 9 154 8 153 C5.32941149 152.85884839 2.67567762 152.95752893 0 153 C1 150 1 150 4 148 C6.3046875 147.5859375 6.3046875 147.5859375 8.875 147.375 C10.13957031 147.26285156 10.13957031 147.26285156 11.4296875 147.1484375 C13.95980393 147.00232135 16.46630732 146.97275599 19 147 C19.99 145.02 20.98 143.04 22 141 C21.21625 141.20625 20.4325 141.4125 19.625 141.625 C14.84740477 142.11923399 10.61332829 141.26844808 6 140 C5 139 5 139 4.8125 135.625 C5 132 5 132 7 129 C1.5852282 129.42468798 -0.89029691 130.55673525 -5 134 C-6.32 134 -7.64 134 -9 134 C-11.17272015 129.6545597 -10.2272642 123.82774688 -10.24023438 119.0012207 C-10.24976297 116.865624 -10.28069196 114.73106628 -10.3125 112.59570312 C-10.4487983 94.9092968 -7.33156587 73.24235422 5.07983398 59.73681641 C7.41558367 56.40766778 7.43378849 54.75912729 7.28515625 50.73828125 C7.25873047 49.53623047 7.23230469 48.33417969 7.20507812 47.09570312 C7.15802734 45.84724609 7.11097656 44.59878906 7.0625 43.3125 C6.398132 24.40280199 6.398132 24.40280199 12 16 C9.36 16 6.72 16 4 16 C4 15.01 4 14.02 4 13 C6.31 11.68 8.62 10.36 11 9 C9.54261898 8.01941648 8.08406325 7.04057868 6.625 6.0625 C5.81289063 5.51722656 5.00078125 4.97195312 4.1640625 4.41015625 C2.07280816 2.98906121 2.07280816 2.98906121 0 2 C0 1.34 0 0.68 0 0 Z M31 137 C30.18129815 140.56206661 30.18129815 140.56206661 30 144 C32.40134932 146.21663014 33.78325857 146.96903694 37.0625 147.4375 C40.03760664 147.25599712 40.03760664 147.25599712 41.9375 145.375 C43.36489363 142.18435542 42.93843266 140.32060787 42 137 C40.18737153 134.76790605 40.18737153 134.76790605 37.625 134.75 C33.99567363 135.08926107 33.99567363 135.08926107 31 137 Z " fill="#624229" transform="translate(38,1)"/>
<path d="M0 0 C3.77175428 -0.19428219 6.35438227 0.32087248 9.8125 1.8125 C10.6890625 2.17472656 11.565625 2.53695313 12.46875 2.91015625 C13.97934811 3.56055266 15.48270455 4.22890156 16.96875 4.93359375 C25.33825195 8.63958084 33.86856673 8.02673984 42.27734375 4.84741211 C43.64436089 4.29516392 45.00436361 3.72511893 46.35546875 3.13500977 C50.76038619 1.24598649 54.22176762 0.70367551 59 1 C56.62178375 3.37821625 54.3694256 4.2875278 51.3125 5.6875 C44.51972021 9.0431658 39.28340194 12.73197971 36.0625 19.75 C34.84463057 22.90536936 34.84463057 22.90536936 35 26 C35.226875 25.2575 35.45375 24.515 35.6875 23.75 C37.38426222 20.19487917 38.52185622 18.9165282 42 17 C45.69174511 16.67242262 49.30450265 16.76700892 53 17 C53 17.66 53 18.32 53 19 C53.5775 19.268125 54.155 19.53625 54.75 19.8125 C58.64168112 21.86644281 60.59206712 22.95977115 62.25 27.1875 C62.62125 28.5796875 62.62125 28.5796875 63 30 C63.66 30 64.32 30 65 30 C66.36863468 34.10590403 66.74142593 37.71541361 66 42 C61.70296336 49.87278498 54.10260082 52.82413671 45.9375 55.25 C28.7290983 59.68474104 11.24212206 55.75542218 -4.81884766 48.80273438 C-7.61409359 47.77399376 -10.0526048 47.68974787 -13 48 C-15.85949428 41.68528347 -17.3232989 35.92620277 -16 29 C-13.13903527 22.82929175 -9.59793972 17.9238723 -4 14 C-0.6875 13.25 -0.6875 13.25 2 13 C1.67 13.99 1.34 14.98 1 16 C1.639375 15.835 2.27875 15.67 2.9375 15.5 C8.86585866 14.53210471 14.53265201 14.17814297 20 17 C20 17.66 20 18.32 20 19 C20.99 19.33 21.98 19.66 23 20 C25.1519437 23.22791555 25.20086443 24.28400809 25 28 C25.66 28 26.32 28 27 28 C26.62508094 26.28695519 26.22388983 24.57965399 25.8125 22.875 C25.59207031 21.92367188 25.37164062 20.97234375 25.14453125 19.9921875 C22.11582437 12.07413469 16.4413333 9.20593784 9.1875 5.625 C7.86202148 4.95017578 7.86202148 4.95017578 6.50976562 4.26171875 C4.3456958 3.16213733 2.17613001 2.07545947 0 1 C0 0.67 0 0.34 0 0 Z " fill="#D3C0B5" transform="translate(65,4)"/>
<path d="M0 0 C0.70382813 0.29648438 1.40765625 0.59296875 2.1328125 0.8984375 C17.35760078 6.74774308 33.10166268 5.16991707 49 4 C49.44443464 16.05272569 49.66698183 26.69023381 45 38 C44.67 38.89074219 44.34 39.78148437 44 40.69921875 C42.60932699 43.89885315 40.550015 45.61629032 38 48 C37.42121094 48.63292969 36.84242187 49.26585937 36.24609375 49.91796875 C32.00899475 54.48034 28.05669249 57.27404104 22.39453125 59.83984375 C20.0847068 60.95895935 18.1722426 62.21128019 16.125 63.75 C13.38115156 65.72557088 12.14545634 66.37363207 9 67 C7.87241911 63.61725734 8.18249738 62.23221777 8.9375 58.8125 C9.13214844 57.91144531 9.32679687 57.01039062 9.52734375 56.08203125 C9.68332031 55.39496094 9.83929688 54.70789063 10 54 C9.34 54 8.68 54 8 54 C8 53.34 8 52.68 8 52 C7.21625 51.7525 6.4325 51.505 5.625 51.25 C3 50 3 50 1.5 48.25 C1 46 1 46 2.44384766 43.26123047 C4.13881622 39.70908268 4.38632198 37.475548 4.3984375 33.5703125 C4.40230469 32.36246094 4.40617187 31.15460938 4.41015625 29.91015625 C4.39855469 28.66105469 4.38695313 27.41195312 4.375 26.125 C4.38660156 24.88363281 4.39820312 23.64226562 4.41015625 22.36328125 C4.38815825 15.47790665 3.86324537 10.26425763 1 4 C0.6421015 2.67304953 0.30251751 1.34066105 0 0 Z " fill="#89776A" transform="translate(71,68)"/>
<path d="M0 0 C23.67873873 -0.75271697 23.67873873 -0.75271697 33.9609375 3.11328125 C38.82902021 4.53366014 43.6456103 4.21902677 48.6640625 4.0625 C51.78757887 3.97577581 54.84442027 4.0858442 57.9609375 4.3125 C59.21849854 4.40301636 59.21849854 4.40301636 60.50146484 4.49536133 C62.12006306 4.61983238 63.73776189 4.75689951 65.35400391 4.90893555 C70.26404416 5.26628851 73.59471532 4.61855563 78.11132812 2.6965332 C81.0043411 1.62960378 83.69265287 1.67685772 86.75 1.75 C87.83796875 1.76546875 88.9259375 1.7809375 90.046875 1.796875 C92.51993691 1.96697979 94.63686685 2.28876575 97 3 C97 3.66 97 4.32 97 5 C93.04 6.98 89.08 8.96 85 11 C85.99 12.32 86.98 13.64 88 15 C88.39171753 16.65391846 88.72057545 18.32345271 89 20 C89.64097297 22.00838196 90.30899447 24.00827818 91 26 C94.86937461 37.15290329 95.11014068 45.24990472 90 56 C89.46117187 56.8353125 88.92234375 57.670625 88.3671875 58.53125 C86.30747119 63.75704453 86.76519568 68.75649846 86.9375 74.3125 C87.46203277 93.18451931 87.46203277 93.18451931 82.5625 100.3125 C82.12421875 100.95832031 81.6859375 101.60414062 81.234375 102.26953125 C80.82703125 102.84058594 80.4196875 103.41164063 80 104 C79.443125 104.825 78.88625 105.65 78.3125 106.5 C77.6628125 107.2425 77.6628125 107.2425 77 108 C76.34 108 75.68 108 75 108 C75.45712238 106.45797384 75.91576347 104.91639786 76.375 103.375 C76.63023438 102.51648438 76.88546875 101.65796875 77.1484375 100.7734375 C78 98 78 98 79.0625 95.34375 C80.38582582 90.62388792 80.46627385 86.00582899 80.625 81.125 C80.66367188 80.15046875 80.70234375 79.1759375 80.7421875 78.171875 C80.83593033 75.7814328 80.9216383 73.39098756 81 71 C80.01902344 71.144375 79.03804688 71.28875 78.02734375 71.4375 C62.81923473 73.57533864 45.51937442 75.83959097 32 67 C32.27714844 67.4846875 32.55429688 67.969375 32.83984375 68.46875 C35.51209285 73.4138373 36.59967438 77.39544133 37 83 C36.01 82.01 36.01 82.01 35 81 C35 79.68 35 78.36 35 77 C31.535 77.99 31.535 77.99 28 79 C25 74.25 25 74.25 25 72 C24.34 72 23.68 72 23 72 C22.67 69.36 22.34 66.72 22 64 C21.67 65.65 21.34 67.3 21 69 C19.5393715 66.35261084 19 65.10551666 19 62 C20.98 61.505 20.98 61.505 23 61 C22.071875 60.278125 21.14375 59.55625 20.1875 58.8125 C17.41165004 56.51569743 15.6617322 54.23114595 14 51 C17.93814486 49.91139295 19.97780992 50.06479354 23.671875 51.765625 C41.54164073 59.45055016 60.5342295 61.84851102 79 55 C83.82734543 52.51660634 88.22706537 49.78267625 91 45 C91.36157879 41.9522555 91.36157879 41.9522555 91.1875 38.75 C91.16042969 37.67234375 91.13335937 36.5946875 91.10546875 35.484375 C91.07066406 34.66453125 91.03585938 33.8446875 91 33 C90.34 33 89.68 33 89 33 C88.649375 32.113125 88.29875 31.22625 87.9375 30.3125 C85.81027051 26.67562377 83.92348825 25.25061382 80.42578125 23.078125 C79.95527344 22.72234375 79.48476562 22.3665625 79 22 C79 21.34 79 20.68 79 20 C77.22825181 20.08723378 75.45752623 20.19541655 73.6875 20.3125 C72.70136719 20.37050781 71.71523437 20.42851562 70.69921875 20.48828125 C67.70145133 21.05659895 66.9473895 21.76499605 65 24 C64.34 24 63.68 24 63 24 C62.34 26.97 61.68 29.94 61 33 C60.67 33 60.34 33 60 33 C59.42698156 26.12377872 61.25437534 21.62514231 65.40234375 16.1484375 C70.2821868 10.73169241 76.42860524 7.94579765 83 5 C78.04558565 5.54561272 73.9745866 6.67203759 69.375 8.5625 C55.61685674 13.52065068 44.97491713 10.44644777 32 5 C31.67 4.67 31.34 4.34 31 4 C29.906875 4.020625 28.81375 4.04125 27.6875 4.0625 C23.042122 4.12886254 18.68166205 3.33087815 14.12109375 2.51171875 C9.43602529 1.74357861 4.73192936 1.35396322 0 1 C0 0.67 0 0.34 0 0 Z " fill="#7E6F65" transform="translate(39,1)"/>
<path d="M0 0 C0.70382813 0.29648438 1.40765625 0.59296875 2.1328125 0.8984375 C17.35760078 6.74774308 33.10166268 5.16991707 49 4 C49.20401554 19.07448187 49.20401554 19.07448187 48 24 C45.66420057 25.55719962 43.50676957 26.78459657 41 28 C40.0409375 28.556875 40.0409375 28.556875 39.0625 29.125 C36.58890178 30.17440531 34.66046462 30.14780359 32 30 C31.67 29.01 31.34 28.02 31 27 C30.443125 27.226875 29.88625 27.45375 29.3125 27.6875 C27 28 27 28 24.5625 26.5 C22.11742499 24.66521734 22.11742499 24.66521734 19.5625 25.625 C17 26 17 26 15.3515625 24.96484375 C13.85102344 23.70030497 12.42020024 22.35414441 11 21 C10.01 23.31 9.02 25.62 8 28 C7.67 28 7.34 28 7 28 C6.89453857 27.42556152 6.78907715 26.85112305 6.68041992 26.25927734 C6.19211158 23.62935407 5.68993153 21.00226013 5.1875 18.375 C5.02185547 17.47136719 4.85621094 16.56773438 4.68554688 15.63671875 C3.71449579 10.61656784 2.48964404 6.52273444 0 2 C0 1.34 0 0.68 0 0 Z " fill="#D6C3B9" transform="translate(71,68)"/>
<path d="M0 0 C3.14675241 0.28223216 6.29215185 0.57755706 9.4375 0.875 C10.31599609 0.95363281 11.19449219 1.03226562 12.09960938 1.11328125 C21.49994061 2.01515805 29.33257112 3.69454007 37.6875 8.1875 C38.40744141 8.54908203 39.12738281 8.91066406 39.86914062 9.28320312 C46.27108615 12.67384155 50.81411188 16.81966367 53.375 23.6875 C54 27 54 27 54 31 C53.34 31 52.68 31 52 31 C51.731875 30.071875 51.46375 29.14375 51.1875 28.1875 C50.06289965 25.1688359 49.29293427 24.0844857 47 22 C47 21.34 47 20.68 47 20 C40.40717171 18.29862496 33.62566373 18.64088949 27 20 C27.66 18.68 28.32 17.36 29 16 C20.85146848 18.47597103 17.23440963 22.76621689 13 30 C10.5657658 34.8684684 11.52300339 42.07562522 13 47.1875 C13.495 48.5796875 13.495 48.5796875 14 50 C13.01 49.67 12.02 49.34 11 49 C10.87882812 49.63808594 10.75765625 50.27617188 10.6328125 50.93359375 C10.46523438 51.75988281 10.29765625 52.58617187 10.125 53.4375 C9.96257813 54.26121094 9.80015625 55.08492187 9.6328125 55.93359375 C9.31957031 56.95646484 9.31957031 56.95646484 9 58 C8.01 58.495 8.01 58.495 7 59 C6.9249852 54.91073151 6.87099683 50.82173793 6.83520508 46.73193359 C6.82026053 45.34514373 6.79989722 43.95839993 6.77368164 42.57177734 C6.59914348 33.09195938 6.57741344 24.13387984 12 16 C9.36 16 6.72 16 4 16 C4 15.01 4 14.02 4 13 C6.31 11.68 8.62 10.36 11 9 C9.54261898 8.01941648 8.08406325 7.04057868 6.625 6.0625 C5.81289063 5.51722656 5.00078125 4.97195312 4.1640625 4.41015625 C2.07280816 2.98906121 2.07280816 2.98906121 0 2 C0 1.34 0 0.68 0 0 Z " fill="#81695A" transform="translate(38,1)"/>
<path d="M0 0 C23.67873873 -0.75271697 23.67873873 -0.75271697 33.9609375 3.11328125 C38.82902021 4.53366014 43.6456103 4.21902677 48.6640625 4.0625 C51.78757887 3.97577581 54.84442027 4.0858442 57.9609375 4.3125 C59.21849854 4.40301636 59.21849854 4.40301636 60.50146484 4.49536133 C62.12006306 4.61983238 63.73776189 4.75689951 65.35400391 4.90893555 C70.26404416 5.26628851 73.59471532 4.61855563 78.11132812 2.6965332 C81.0043411 1.62960378 83.69265287 1.67685772 86.75 1.75 C87.83796875 1.76546875 88.9259375 1.7809375 90.046875 1.796875 C92.51993691 1.96697979 94.63686685 2.28876575 97 3 C97 3.66 97 4.32 97 5 C93.04 6.98 89.08 8.96 85 11 C85.99 12.32 86.98 13.64 88 15 C88.39171753 16.65391846 88.72057545 18.32345271 89 20 C89.64097297 22.00838196 90.30899447 24.00827818 91 26 C92.85867369 31.35735358 94.1474506 36.12080986 94.0625 41.8125 C94.05347656 42.60269531 94.04445313 43.39289062 94.03515625 44.20703125 C94.02355469 44.79871094 94.01195312 45.39039063 94 46 C91.89172945 42.83759418 91.66182535 41.49342531 91.375 37.8125 C91.26285156 36.46091797 91.26285156 36.46091797 91.1484375 35.08203125 C91.09945312 34.39496094 91.05046875 33.70789062 91 33 C90.34 33 89.68 33 89 33 C88.649375 32.113125 88.29875 31.22625 87.9375 30.3125 C85.81027051 26.67562377 83.92348825 25.25061382 80.42578125 23.078125 C79.95527344 22.72234375 79.48476562 22.3665625 79 22 C79 21.34 79 20.68 79 20 C77.22825181 20.08723378 75.45752623 20.19541655 73.6875 20.3125 C72.70136719 20.37050781 71.71523437 20.42851562 70.69921875 20.48828125 C67.70145133 21.05659895 66.9473895 21.76499605 65 24 C64.34 24 63.68 24 63 24 C62.34 26.97 61.68 29.94 61 33 C60.67 33 60.34 33 60 33 C59.42698156 26.12377872 61.25437534 21.62514231 65.40234375 16.1484375 C70.2821868 10.73169241 76.42860524 7.94579765 83 5 C78.04558565 5.54561272 73.9745866 6.67203759 69.375 8.5625 C55.61685674 13.52065068 44.97491713 10.44644777 32 5 C31.67 4.67 31.34 4.34 31 4 C29.906875 4.020625 28.81375 4.04125 27.6875 4.0625 C23.042122 4.12886254 18.68166205 3.33087815 14.12109375 2.51171875 C9.43602529 1.74357861 4.73192936 1.35396322 0 1 C0 0.67 0 0.34 0 0 Z " fill="#9A765B" transform="translate(39,1)"/>
<path d="M0 0 C-0.33 0.99 -0.66 1.98 -1 3 C-0.360625 2.835 0.27875 2.67 0.9375 2.5 C4.97586652 1.84067485 8.91807258 1.91996221 13 2 C13 2.33 13 2.66 13 3 C12.35933594 3.07476563 11.71867187 3.14953125 11.05859375 3.2265625 C4.49610821 4.22413854 0.41281651 5.98150279 -4 11 C-5.73490246 13.58443323 -5.73490246 13.58443323 -7 16 C-7.53625 16.495 -8.0725 16.99 -8.625 17.5 C-10.4724141 19.51536084 -10.64031493 21.33833049 -11 24 C-10.360625 24.2475 -9.72125 24.495 -9.0625 24.75 C-7 26 -7 26 -6.25 28.125 C-6.12625 29.053125 -6.12625 29.053125 -6 30 C-5.01 30 -4.02 30 -3 30 C-3 30.99 -3 31.98 -3 33 C0.465 33.495 0.465 33.495 4 34 C4.33 34.99 4.66 35.98 5 37 C5.69867188 36.7834375 6.39734375 36.566875 7.1171875 36.34375 C10.83304276 35.90066699 12.76347391 36.91612305 16.125 38.5 C20.44122545 40.78195972 20.44122545 40.78195972 25 40 C24.2575 38.9171875 24.2575 38.9171875 23.5 37.8125 C21.88132527 34.77748489 21.48167436 33.36911664 22 30 C23.0625 27.6875 23.0625 27.6875 25 26 C28.5 25.5 28.5 25.5 32 26 C34.35900663 28.05461867 34.88874646 29.38015887 35.4375 32.4375 C34.8606868 35.81597732 33.2801755 37.50605805 31 40 C31.99 40 32.98 40 34 40 C34 40.66 34 41.32 34 42 C35.65 42 37.3 42 39 42 C33.32991179 45.78005881 25.96731611 44.67692046 19.45019531 43.56494141 C16.70324608 43.00847744 13.97695854 42.39723497 11.25 41.75 C10.38777832 41.54560303 9.52555664 41.34120605 8.63720703 41.13061523 C3.27401059 39.77625719 -1.74232827 38.00032612 -6.81884766 35.80273438 C-9.61409359 34.77399376 -12.0526048 34.68974787 -15 35 C-17.85949428 28.68528347 -19.3232989 22.92620277 -18 16 C-15.12713149 9.80361693 -11.58101854 4.97881226 -6 1 C-3 0 -3 0 0 0 Z " fill="#E7C08F" transform="translate(67,17)"/>
<path d="M0 0 C3.8026029 2.0050088 5.61790841 3.42686262 8 7 C8.66624845 11.07463524 8.94496094 15.24356703 6.94921875 18.953125 C4.44712018 21.99402355 2.52236859 23.85045977 -1.42578125 24.23828125 C-9.23179022 24.43897702 -9.23179022 24.43897702 -13.0625 22.25 C-15.96544516 18.87883787 -16.87772695 17.10045747 -17.375 12.625 C-16.8476637 7.52741573 -14.66444332 4.84938147 -11.3125 1.125 C-7.59900857 -0.6815634 -4.04163279 -0.64441979 0 0 Z " fill="#A76535" transform="translate(80,22)"/>
<path d="M0 0 C3.09632649 2.43753362 4.82300487 4.73450731 7 8 C7.42740092 13.29977145 7.52351458 16.74748241 4 21 C1.34491572 23.08101201 -0.56685649 23.91525453 -3.875 24.5625 C-8.34564738 23.75778347 -10.93660059 21.2574991 -14 18 C-15.84862688 14.30274625 -15.47587094 10.03538558 -15 6 C-11.22343356 -0.16839185 -6.90742279 -1.08750082 0 0 Z " fill="#A57F37" transform="translate(117,23)"/>
<path d="M0 0 C0 0.66 0 1.32 0 2 C0.804375 1.979375 1.60875 1.95875 2.4375 1.9375 C5 2 5 2 6 3 C8.64984799 3.21128356 11.28339897 3.37612666 13.9375 3.5 C21.73130393 3.86565197 21.73130393 3.86565197 24 5 C27.56121589 4.57158305 31.07955834 3.96583577 34.6171875 3.375 C37.55641198 3.04917373 39.26971878 3.01215956 42 4 C42 5.98 42 7.96 42 10 C41.505 9.01 41.505 9.01 41 8 C40.01902344 8.144375 39.03804687 8.28875 38.02734375 8.4375 C22.81923473 10.57533864 5.51937442 12.83959097 -8 4 C-7.72285156 4.4846875 -7.44570312 4.969375 -7.16015625 5.46875 C-4.48790715 10.4138373 -3.40032562 14.39544133 -3 20 C-3.66 19.34 -4.32 18.68 -5 18 C-5 16.68 -5 15.36 -5 14 C-7.31 14.66 -9.62 15.32 -12 16 C-15 11.25 -15 11.25 -15 9 C-15.66 9 -16.32 9 -17 9 C-17.33 6.36 -17.66 3.72 -18 1 C-18.33 2.65 -18.66 4.3 -19 6 C-20.4606285 3.35261084 -21 2.10551666 -21 -1 C-14.02939687 -2.65093232 -6.90979152 -1.61228469 0 0 Z " fill="#958479" transform="translate(79,64)"/>
<path d="M0 0 C0.70382813 0.29648438 1.40765625 0.59296875 2.1328125 0.8984375 C17.35760078 6.74774308 33.10166268 5.16991707 49 4 C49.20401554 19.07448187 49.20401554 19.07448187 48 24 C45.66420057 25.55719962 43.50676957 26.78459657 41 28 C40.0409375 28.556875 40.0409375 28.556875 39.0625 29.125 C36.58890178 30.17440531 34.66046462 30.14780359 32 30 C31.67 29.01 31.34 28.02 31 27 C30.443125 27.226875 29.88625 27.45375 29.3125 27.6875 C27 28 27 28 24.5625 26.5 C22.11742499 24.66521734 22.11742499 24.66521734 19.5625 25.625 C17 26 17 26 15.3515625 24.96484375 C13.85102344 23.70030497 12.42020024 22.35414441 11 21 C11.33 20.01 11.66 19.02 12 18 C12.38800781 18.47050781 12.77601562 18.94101563 13.17578125 19.42578125 C15.47502924 21.40992887 17.21311811 21.68533163 20.1875 22.1875 C21.53908203 22.42533203 21.53908203 22.42533203 22.91796875 22.66796875 C23.60503906 22.77753906 24.29210937 22.88710937 25 23 C25 22.01 25 21.02 25 20 C25.99 20.33 26.98 20.66 28 21 C28 21.66 28 22.32 28 23 C28.721875 22.525625 29.44375 22.05125 30.1875 21.5625 C32.96812884 20.0177062 34.91567824 19.58748986 38 19 C43.35202149 17.11720415 43.35202149 17.11720415 47 13 C47.16699232 9.87478167 47.16699232 9.87478167 47 7 C45.84951172 7.35964844 45.84951172 7.35964844 44.67578125 7.7265625 C36.78372963 9.83477606 30.0334584 10.14416878 21.9375 9.375 C20.58168823 9.2524585 20.58168823 9.2524585 19.19848633 9.12744141 C14.37036318 8.58792067 11.06678364 7.82200766 7 5 C4.29046449 4.74803871 4.29046449 4.74803871 2 5 C1.34 3.35 0.68 1.7 0 0 Z " fill="#C0ACA2" transform="translate(71,68)"/>
<path d="M0 0 C3.14675241 0.28223216 6.29215185 0.57755706 9.4375 0.875 C10.31599609 0.95363281 11.19449219 1.03226562 12.09960938 1.11328125 C21.59248392 2.02403674 29.39588832 3.73743255 37.8125 8.3125 C38.54919922 8.69083984 39.28589844 9.06917969 40.04492188 9.45898438 C44.33642262 11.75011079 47.21940302 13.87654254 50 18 C49.34 18.66 48.68 19.32 48 20 C47.5153125 19.57847656 47.030625 19.15695313 46.53125 18.72265625 C41.80502001 14.85987212 38.18347482 13.09060036 32 13 C31.19304687 12.9278125 30.38609375 12.855625 29.5546875 12.78125 C22.99616146 12.38011691 19.14323829 13.97735553 14 18 C13.67 17.34 13.34 16.68 13 16 C10.03 16 7.06 16 4 16 C4 15.01 4 14.02 4 13 C6.31 11.68 8.62 10.36 11 9 C9.54261898 8.01941648 8.08406325 7.04057868 6.625 6.0625 C5.81289063 5.51722656 5.00078125 4.97195312 4.1640625 4.41015625 C2.07280816 2.98906121 2.07280816 2.98906121 0 2 C0 1.34 0 0.68 0 0 Z " fill="#482D1F" transform="translate(38,1)"/>
<path d="M0 0 C0 0.66 0 1.32 0 2 C0.5775 2.268125 1.155 2.53625 1.75 2.8125 C5.64168112 4.86644281 7.59206712 5.95977115 9.25 10.1875 C9.4975 11.115625 9.745 12.04375 10 13 C10.66 13 11.32 13 12 13 C13.36863468 17.10590403 13.74142593 20.71541361 13 25 C9.75319541 30.94860984 4.18233272 34.67886602 -2.1640625 36.68359375 C-7.18223532 37.93382581 -11.84313339 38.18752242 -17 38 C-17 37.34 -17 36.68 -17 36 C-17.99 36 -18.98 36 -20 36 C-19.71125 35.443125 -19.4225 34.88625 -19.125 34.3125 C-17.9586747 31.91505355 -16.9660119 29.48403061 -16 27 C-15.773125 27.61875 -15.54625 28.2375 -15.3125 28.875 C-14.12781737 31.13276066 -14.12781737 31.13276066 -11.875 32.375 C-7.75924071 33.26973028 -5.00989893 32.223359 -1 31 C-0.9175 29.906875 -0.835 28.81375 -0.75 27.6875 C0 24 0 24 2 22.25 C2.66 21.8375 3.32 21.425 4 21 C5.62560673 16.1231798 5.80931686 11.7727893 3.6875 7.125 C1.13664702 3.91281477 -0.63883089 3.0612151 -4.6875 2.375 C-5.780625 2.25125 -6.87375 2.1275 -8 2 C-8 1.67 -8 1.34 -8 1 C-5.23735711 0.40267181 -2.83967231 0 0 0 Z " fill="#E0BF96" transform="translate(118,21)"/>
<path d="M0 0 C0.33 0 0.66 0 1 0 C1.08082094 1.95766281 1.13910778 3.91626728 1.1875 5.875 C1.23970703 7.51082031 1.23970703 7.51082031 1.29296875 9.1796875 C1.19628906 10.11039063 1.09960938 11.04109375 1 12 C-2.20380017 14.13586678 -3.01939967 14.23132175 -6.6875 14.125 C-7.49574219 14.10695312 -8.30398437 14.08890625 -9.13671875 14.0703125 C-10.05904297 14.03550781 -10.05904297 14.03550781 -11 14 C-10.505 16.475 -10.505 16.475 -10 19 C-12.97 19 -15.94 19 -19 19 C-19.33 17.68 -19.66 16.36 -20 15 C-20.99902344 15.01160156 -21.99804688 15.02320313 -23.02734375 15.03515625 C-24.31769531 15.04417969 -25.60804687 15.05320313 -26.9375 15.0625 C-28.22527344 15.07410156 -29.51304688 15.08570313 -30.83984375 15.09765625 C-34 15 -34 15 -35 14 C-37.67058851 13.85884839 -40.32432238 13.95752893 -43 14 C-42 11 -42 11 -39 9 C-36.6953125 8.5859375 -36.6953125 8.5859375 -34.125 8.375 C-32.86042969 8.26285156 -32.86042969 8.26285156 -31.5703125 8.1484375 C-29.04019607 8.00232135 -26.53369268 7.97275599 -24 8 C-23.01 5.69 -22.02 3.38 -21 1 C-20.34 1 -19.68 1 -19 1 C-18.67 3.31 -18.34 5.62 -18 8 C-16.27119018 8.05449838 -14.54187288 8.09301688 -12.8125 8.125 C-11.36810547 8.15980469 -11.36810547 8.15980469 -9.89453125 8.1953125 C-6.80983793 7.98716855 -4.72245926 7.45709087 -2 6 C-0.62810173 2.97017694 -0.62810173 2.97017694 0 0 Z " fill="#8E7969" transform="translate(81,140)"/>
<path d="M0 0 C3.77175428 -0.19428219 6.35438227 0.32087248 9.8125 1.8125 C10.6890625 2.17472656 11.565625 2.53695313 12.46875 2.91015625 C13.97934811 3.56055266 15.48270455 4.22890156 16.96875 4.93359375 C25.33825195 8.63958084 33.86856673 8.02673984 42.27734375 4.84741211 C43.64436089 4.29516392 45.00436361 3.72511893 46.35546875 3.13500977 C50.76038619 1.24598649 54.22176762 0.70367551 59 1 C56.62178375 3.37821625 54.3694256 4.2875278 51.3125 5.6875 C44.41034201 9.07643472 39.24881641 12.91448611 36 20 C35.34 20 34.68 20 34 20 C33.34 19.01 32.68 18.02 32 17 C29.43717258 16.27034634 29.43717258 16.27034634 27 16 C27 16.66 27 17.32 27 18 C24 17 24 17 21.92578125 14.2734375 C18.5243041 10.00596748 14.00176387 8.00161647 9.1875 5.625 C8.30384766 5.17511719 7.42019531 4.72523437 6.50976562 4.26171875 C4.3456958 3.16213733 2.17613001 2.07545947 0 1 C0 0.67 0 0.34 0 0 Z " fill="#E6D5CD" transform="translate(65,4)"/>
<path d="M0 0 C23.67873873 -0.75271697 23.67873873 -0.75271697 33.9609375 3.11328125 C38.82902021 4.53366014 43.6456103 4.21902677 48.6640625 4.0625 C51.78757887 3.97577581 54.84442027 4.0858442 57.9609375 4.3125 C59.21849854 4.40301636 59.21849854 4.40301636 60.50146484 4.49536133 C62.12006306 4.61983238 63.73776189 4.75689951 65.35400391 4.90893555 C70.26147279 5.26610136 73.59632035 4.62114846 78.11132812 2.70092773 C81.00102699 1.62849683 83.69209015 1.63994877 86.75 1.6875 C87.83796875 1.69136719 88.9259375 1.69523438 90.046875 1.69921875 C92.89128996 1.98892768 94.58324587 2.52765707 97 4 C95.8140625 4.00257813 94.628125 4.00515625 93.40625 4.0078125 C84.89324873 4.16441209 77.5130654 4.69762685 69.625 8.0625 C57.07124596 13.29258802 47.5971489 11.12472009 35.359375 6.41015625 C32 5 32 5 31 4 C29.906875 4.020625 28.81375 4.04125 27.6875 4.0625 C23.042122 4.12886254 18.68166205 3.33087815 14.12109375 2.51171875 C9.43602529 1.74357861 4.73192936 1.35396322 0 1 C0 0.67 0 0.34 0 0 Z " fill="#7C5339" transform="translate(39,1)"/>
<path d="M0 0 C0.33 0 0.66 0 1 0 C1.47761194 7.04477612 1.47761194 7.04477612 -0.4375 10.875 C-3.55408393 13.45948423 -5.96328828 13.86300325 -9.8828125 14.53125 C-12.47445357 15.10504507 -13.99461082 16.30313223 -16 18 C-16.99 18 -17.98 18 -19 18 C-20.04625409 16.70264493 -21.04701223 15.36733028 -22 14 C-22.66 13.67 -23.32 13.34 -24 13 C-24.07427838 9.65747276 -24.06546953 7.1964086 -23 4 C-21.700625 4.04125 -20.40125 4.0825 -19.0625 4.125 C-14.83364884 4.13831922 -11.1081633 3.46210015 -7.01953125 2.4453125 C-4.64409047 1.92152092 -2.42437225 1.84358889 0 2 C0 1.34 0 0.68 0 0 Z " fill="#D0BEB6" transform="translate(118,73)"/>
<path d="M0 0 C0.33 0.66 0.66 1.32 1 2 C0.14297181 4.11770789 -0.81149829 6.19642273 -1.8125 8.25 C-3.85155692 12.45404135 -5.54890839 16.56136685 -7 21 C-7.33 21.33 -7.66 21.66 -8 22 C-7.99409606 23.3756185 -7.9448571 24.75114371 -7.875 26.125 C-7.82706296 29.95996352 -8.48629252 32.31781971 -10.19140625 35.78515625 C-11.35406941 38.9698423 -11.83477724 42.22167398 -12.3125 45.5625 C-12.49425781 46.82191406 -12.67601562 48.08132812 -12.86328125 49.37890625 C-13.00555027 53.14700277 -12.33644476 55.51515725 -11 59 C-11.21101968 63.4314132 -12.8739691 65.0246212 -16 68 C-16.62623518 38.52840909 -16.62623518 38.52840909 -13 26 C-12.70996094 24.95199219 -12.41992188 23.90398437 -12.12109375 22.82421875 C-9.67613677 14.77325163 -6.37502186 5.76967854 0 0 Z " fill="#8C7260" transform="translate(44,60)"/>
<path d="M0 0 C0.33 0.66 0.66 1.32 1 2 C0.36320313 3.10472656 -0.27359375 4.20945312 -0.9296875 5.34765625 C-3.84984725 10.9130338 -3.36587362 16.29522272 -3.125 22.4375 C-2.52208337 41.161411 -2.52208337 41.161411 -7.4375 48.3125 C-8.09492187 49.28123047 -8.09492187 49.28123047 -8.765625 50.26953125 C-9.17296875 50.84058594 -9.5803125 51.41164062 -10 52 C-10.556875 52.825 -11.11375 53.65 -11.6875 54.5 C-12.120625 54.995 -12.55375 55.49 -13 56 C-13.66 56 -14.32 56 -15 56 C-14.54287762 54.45797384 -14.08423653 52.91639786 -13.625 51.375 C-13.36976562 50.51648438 -13.11453125 49.65796875 -12.8515625 48.7734375 C-12 46 -12 46 -10.921875 43.23046875 C-9.73955929 39.08735395 -9.709079 35.22252637 -9.625 30.9375 C-9.19133004 19.3167098 -6.77747488 9.60142275 0 0 Z " fill="#6F4D2F" transform="translate(129,53)"/>
<path d="M0 0 C0.78503906 0.07863281 1.57007812 0.15726563 2.37890625 0.23828125 C4.4375 0.6875 4.4375 0.6875 6.4375 2.6875 C6.1075 3.6775 5.7775 4.6675 5.4375 5.6875 C3.7875 5.0275 2.1375 4.3675 0.4375 3.6875 C0.128125 4.615625 0.128125 4.615625 -0.1875 5.5625 C-2.17747447 8.6379151 -4.03876605 8.88967345 -7.5625 9.6875 C-13.44630464 10.14010036 -18.85578974 8.97351921 -24.5625 7.6875 C-24.376875 6.90375 -24.19125 6.12 -24 5.3125 C-23.30287734 2.71660225 -23.30287734 2.71660225 -24.5625 0.6875 C-22.77392578 0.70490234 -22.77392578 0.70490234 -20.94921875 0.72265625 C-19.38281406 0.73203592 -17.81640769 0.74113593 -16.25 0.75 C-15.07147461 0.76256836 -15.07147461 0.76256836 -13.86914062 0.77539062 C-12.7331543 0.78022461 -12.7331543 0.78022461 -11.57421875 0.78515625 C-10.52947388 0.79301147 -10.52947388 0.79301147 -9.46362305 0.80102539 C-6.02371807 0.59561178 -3.54262009 -0.39103055 0 0 Z " fill="#88705B" transform="translate(112.5625,145.3125)"/>
<path d="M0 0 C-0.33 0.99 -0.66 1.98 -1 3 C-0.360625 2.835 0.27875 2.67 0.9375 2.5 C4.97586652 1.84067485 8.91807258 1.91996221 13 2 C13 2.33 13 2.66 13 3 C12.07058594 3.13535156 11.14117187 3.27070313 10.18359375 3.41015625 C3.02796119 4.65623616 -1.85089717 5.5930369 -6.5390625 11.31640625 C-8 13 -8 13 -11.375 14.875 C-14.27015612 17.21869781 -14.56001069 17.85636836 -15.1875 21.375 C-15.36406178 24.83788905 -14.95752759 26.69107588 -12.75 29.375 C-11.8425 30.24125 -10.935 31.1075 -10 32 C-9.401875 32.61875 -8.80375 33.2375 -8.1875 33.875 C-7.795625 34.24625 -7.40375 34.6175 -7 35 C-9.64 35 -12.28 35 -15 35 C-17.85949428 28.68528347 -19.3232989 22.92620277 -18 16 C-15.12713149 9.80361693 -11.58101854 4.97881226 -6 1 C-3 0 -3 0 0 0 Z " fill="#B49473" transform="translate(67,17)"/>
<path d="M0 0 C0.33 1.65 0.66 3.3 1 5 C1.99 5 2.98 5 4 5 C3.67 3.35 3.34 1.7 3 0 C6.36370321 1.39187719 8.21906331 2.79431396 10 6 C10.5 8.9375 10.5 8.9375 10 12 C7.54853142 15.31669279 6.04375441 16.76080628 2 17.6875 C-1.43336764 16.90068658 -3.00477759 15.62877534 -5.08203125 12.78515625 C-6.66997367 9.69711504 -6.56100608 7.36603647 -6 4 C-2.92307692 0 -2.92307692 0 0 0 Z " fill="#171512" transform="translate(111,26)"/>
<path d="M0 0 C0.268125 0.61875 0.53625 1.2375 0.8125 1.875 C1.95556848 4.2995233 1.95556848 4.2995233 5 6 C5.99 5.34 6.98 4.68 8 4 C9.32 4 10.64 4 12 4 C12.35671933 7.83473284 12.29771416 9.55342875 10.125 12.8125 C7.43302791 15.58364773 6.549607 15.9274104 2.6875 16.4375 C-1 16 -1 16 -3.9375 13.375 C-6.16933684 9.72290335 -6.72628652 8.1761475 -6 4 C-3.78947368 0 -3.78947368 0 0 0 Z " fill="#181512" transform="translate(73,27)"/>
<path d="M0 0 C1.31097656 0.14308594 1.31097656 0.14308594 2.6484375 0.2890625 C8.63646058 1.20614712 11.55583677 2.98941367 16 7 C16.99 6.67 17.98 6.34 19 6 C19.50757862 7.41396902 20.00574925 8.83131729 20.5 10.25 C20.7784375 11.03890625 21.056875 11.8278125 21.34375 12.640625 C22 15 22 15 22 19 C21.34 19 20.68 19 20 19 C19.731875 18.071875 19.46375 17.14375 19.1875 16.1875 C18.06289965 13.1688359 17.29293427 12.0844857 15 10 C15 9.34 15 8.68 15 8 C12.525 7.505 12.525 7.505 10 7 C10 6.34 10 5.68 10 5 C-1.82726119 3.1460342 -1.82726119 3.1460342 -13.296875 5.53515625 C-16.68975244 8.45334212 -18.55019931 12.573583 -20.6171875 16.48046875 C-21.07351562 17.31191406 -21.52984375 18.14335937 -22 19 C-22.33 19 -22.66 19 -23 19 C-23.35050464 13.158256 -23.16727335 9.1468192 -20 4 C-19.34 4.33 -18.68 4.66 -18 5 C-16.31833442 3.98172635 -16.31833442 3.98172635 -14.5 2.5625 C-9.60398384 -0.61902675 -5.68727773 -0.63573799 0 0 Z " fill="#644836" transform="translate(70,13)"/>
<path d="M0 0 C0.99386719 0.00902344 1.98773438 0.01804687 3.01171875 0.02734375 C4.15060547 0.04474609 4.15060547 0.04474609 5.3125 0.0625 C2.67221892 2.13785607 0.08467731 3.78928097 -2.9375 5.25 C-3.99710938 5.76626953 -3.99710938 5.76626953 -5.078125 6.29296875 C-5.87476563 6.67388672 -5.87476563 6.67388672 -6.6875 7.0625 C-6.1925 7.68125 -5.6975 8.3 -5.1875 8.9375 C-3.6875 11.0625 -3.6875 11.0625 -3.6875 13.0625 C-4.51314453 12.82273437 -4.51314453 12.82273437 -5.35546875 12.578125 C-12.60003572 10.9763112 -19.17913439 11.6006034 -25.6875 15.0625 C-26.6775 15.5575 -26.6775 15.5575 -27.6875 16.0625 C-24.12134344 8.0900827 -16.35608204 4.4275596 -8.6875 1.0625 C-5.53819107 0.01273036 -3.29935544 -0.03881595 0 0 Z " fill="#432B1E" transform="translate(130.6875,4.9375)"/>
<path d="M0 0 C0.556875 0.7425 1.11375 1.485 1.6875 2.25 C5.60659377 7.19660951 5.60659377 7.19660951 11.3203125 9.24609375 C13.56154947 9.24960666 15.76613896 9.17520479 18 9 C17.5 11.8125 17.5 11.8125 16 15 C12.81909369 16.97580524 9.62199537 18.23468431 5.8671875 17.69140625 C4 17 4 17 2 15 C0.98034573 12.67518826 -0.02059602 10.34205301 -1 8 C-2.16983444 6.60318432 -2.16983444 6.60318432 -5.4375 6.875 C-8.84105584 6.7473719 -8.84105584 6.7473719 -11 8 C-10.34 6.68 -9.68 5.36 -9 4 C-6.03 4 -3.06 4 0 4 C0 2.68 0 1.36 0 0 Z " fill="#DECDC5" transform="translate(101,37)"/>
<path d="M0 0 C3.77476823 -0.29606025 6.26199625 -0.40414491 9.625 1.4375 C15.02673826 7.26569128 17.56932522 13.10429578 18 21 C17.34 20.34 16.68 19.68 16 19 C16 17.68 16 16.36 16 15 C13.69 15.66 11.38 16.32 9 17 C6 12.25 6 12.25 6 10 C5.34 10 4.68 10 4 10 C3.67 7.36 3.34 4.72 3 2 C2.67 3.65 2.34 5.3 2 7 C0.5393715 4.35261084 0 3.10551666 0 0 Z " fill="#AE7C44" transform="translate(58,63)"/>
<path d="M0 0 C1.89693861 0.28438952 3.79252027 0.57783792 5.6875 0.875 C6.74324219 1.03742188 7.79898438 1.19984375 8.88671875 1.3671875 C11.80750276 1.96087258 14.2622225 2.85115259 17 4 C28.36705422 6.18597197 40.87756785 5.10979841 52 2 C52 3.98 52 5.96 52 8 C51.505 7.01 51.505 7.01 51 6 C50.01902344 6.144375 49.03804687 6.28875 48.02734375 6.4375 C32.59837092 8.60638597 16.502432 9.97521816 2 3 C1.34 2.01 0.68 1.02 0 0 Z " fill="#A89388" transform="translate(69,66)"/>
<path d="M0 0 C3.5 0.5 3.5 0.5 5.4375 2.1875 C6.69214083 4.91818887 6.95702746 6.52932151 6.5 9.5 C5.375 11.3125 5.375 11.3125 3.5 12.5 C0.14041709 12.92888292 -1.8347031 12.83264845 -4.875 11.3125 C-6.5 9.5 -6.5 9.5 -6.9375 7.0625 C-6.11774471 2.26107614 -4.91343125 0.70191875 0 0 Z " fill="#534036" transform="translate(95.5,42.5)"/>
<path d="M0 0 C1.4589426 0.47730838 2.91713496 0.95691042 4.375 1.4375 C5.18710938 1.70433594 5.99921875 1.97117188 6.8359375 2.24609375 C9 3 9 3 11 4 C11.625 6.5625 11.625 6.5625 12 9 C14.31 9.66 16.62 10.32 19 11 C19 11.33 19 11.66 19 12 C16.69 12 14.38 12 12 12 C12 13.32 12 14.64 12 16 C11.67 16.66 11.34 17.32 11 18 C8.93359375 18.4140625 8.93359375 18.4140625 6.4375 18.625 C5.61121094 18.69976562 4.78492187 18.77453125 3.93359375 18.8515625 C2.97646484 18.92503906 2.97646484 18.92503906 2 19 C2.66 18.34 3.32 17.68 4 17 C4.04401732 14.66708189 4.03954234 12.33299825 4 10 C4.28520405 8.32442621 4.59955696 6.65182755 5 5 C4.34 5 3.68 5 3 5 C1.375 2.5 1.375 2.5 0 0 Z " fill="#5A493C" transform="translate(77,135)"/>
<path d="M0 0 C0.33 0 0.66 0 1 0 C1.08082094 1.95766281 1.13910778 3.91626728 1.1875 5.875 C1.23970703 7.51082031 1.23970703 7.51082031 1.29296875 9.1796875 C1.19628906 10.11039063 1.09960938 11.04109375 1 12 C-2.20380017 14.13586678 -3.01939967 14.23132175 -6.6875 14.125 C-7.49574219 14.10695312 -8.30398437 14.08890625 -9.13671875 14.0703125 C-10.05904297 14.03550781 -10.05904297 14.03550781 -11 14 C-10.67 15.65 -10.34 17.3 -10 19 C-12.31 19 -14.62 19 -17 19 C-16.67 16.69 -16.34 14.38 -16 12 C-15.01 12 -14.02 12 -13 12 C-13.66 11.01 -14.32 10.02 -15 9 C-14.16855469 8.93683594 -13.33710937 8.87367188 -12.48046875 8.80859375 C-6.3906127 8.4302917 -6.3906127 8.4302917 -1.53515625 5.30859375 C-0.60866316 3.18065293 -0.60866316 3.18065293 0 0 Z " fill="#78685C" transform="translate(81,140)"/>
<path d="M0 0 C0.33 0.66 0.66 1.32 1 2 C0.14297181 4.11770789 -0.81149829 6.19642273 -1.8125 8.25 C-3.85155692 12.45404135 -5.54890839 16.56136685 -7 21 C-7.33 21.33 -7.66 21.66 -8 22 C-7.99409606 23.3756185 -7.9448571 24.75114371 -7.875 26.125 C-7.82700742 29.9584077 -8.46064928 32.3674654 -10.19921875 35.828125 C-12.08428139 40.94078269 -12.36500897 46.61378195 -13 52 C-13.33 52 -13.66 52 -14 52 C-14.54181653 34.52140016 -14.54181653 34.52140016 -11 26 C-10.64105484 24.69427195 -10.30754199 23.38128174 -10 22.0625 C-9.84015625 21.41410156 -9.6803125 20.76570313 -9.515625 20.09765625 C-9.14412317 18.58631928 -8.78049563 17.07303896 -8.421875 15.55859375 C-6.77682388 9.29400955 -4.22566177 4.89575053 0 0 Z " fill="#745A4C" transform="translate(44,60)"/>
<path d="M0 0 C8.91 1.98 8.91 1.98 18 4 C18 4.66 18 5.32 18 6 C20.43717258 5.72965366 20.43717258 5.72965366 23 5 C23.66 4.01 24.32 3.02 25 2 C25.69710731 3.28650706 26.38242876 4.57940665 27.0625 5.875 C27.63677734 6.95394531 27.63677734 6.95394531 28.22265625 8.0546875 C28.60744141 9.01761719 28.60744141 9.01761719 29 10 C28.67 10.66 28.34 11.32 28 12 C24.04821379 11.59468859 20.97544892 10.59072774 17.4375 8.875 C14.45555335 7.47469397 13.29279244 6.97609858 9.9375 7.25 C8.9784375 7.62125 8.9784375 7.62125 8 8 C7.67 6.68 7.34 5.36 7 4 C4.69 3.67 2.38 3.34 0 3 C0 2.01 0 1.02 0 0 Z " fill="#E4C9AC" transform="translate(64,47)"/>
<path d="M0 0 C0.33 0 0.66 0 1 0 C1.05423638 1.91635217 1.09289963 3.83314925 1.125 5.75 C1.14820312 6.81734375 1.17140625 7.8846875 1.1953125 8.984375 C1.00487687 11.92470106 0.52670104 13.52361878 -1 16 C-2.65 16 -4.3 16 -6 16 C-6 15.34 -6 14.68 -6 14 C-8.97 13.67 -11.94 13.34 -15 13 C-15.33 12.01 -15.66 11.02 -16 10 C-14.80375 9.938125 -13.6075 9.87625 -12.375 9.8125 C-7.52982344 9.2111483 -5.38595111 7.46656899 -2 4 C-0.62745412 1.85019503 -0.62745412 1.85019503 0 0 Z " fill="#E5D4CB" transform="translate(88,37)"/>
<path d="M0 0 C3.63 0 7.26 0 11 0 C11.33 1.98 11.66 3.96 12 6 C11.01 6 10.02 6 9 6 C8.67 7.65 8.34 9.3 8 11 C7.01 11 6.02 11 5 11 C3.95374591 9.70264493 2.95298777 8.36733028 2 7 C1.34 6.67 0.68 6.34 0 6 C0 4.02 0 2.04 0 0 Z " fill="#E2CFC6" transform="translate(94,80)"/>
<path d="M0 0 C7.92 0.33 15.84 0.66 24 1 C24 1.66 24 2.32 24 3 C24.66 3.33 25.32 3.66 26 4 C17.81700423 6.72766526 9.41442796 5.39325159 1.73046875 1.875 C1.15941406 1.58625 0.58835937 1.2975 0 1 C0 0.67 0 0.34 0 0 Z " fill="#9B745A" transform="translate(78,7)"/>
<path d="M0 0 C0.66 0.33 1.32 0.66 2 1 C1.93198413 4.40079373 1.82516141 7.03471684 -0.44921875 9.6953125 C-2.23804565 11.23967932 -4.07076183 12.63622819 -6 14 C-6.7425 14.5775 -7.485 15.155 -8.25 15.75 C-12.62398281 17.738174 -17.27123183 18.29606779 -22 19 C-22 18.01 -22 17.02 -22 16 C-21.13375 16.0825 -20.2675 16.165 -19.375 16.25 C-15.21313456 15.94171367 -13.32222178 14.43629597 -10 12 C-9.01 11.67 -8.02 11.34 -7 11 C-7 10.34 -7 9.68 -7 9 C-5.25425612 7.40121925 -3.40118663 5.98584121 -1.53125 4.53515625 C0.35310272 3.00737625 0.35310272 3.00737625 0 0 Z " fill="#DCB685" transform="translate(129,40)"/>
<path d="M0 0 C6.75 0.75 6.75 0.75 9 3 C11.06874034 3.6425235 11.06874034 3.6425235 13 4 C13 4.66 13 5.32 13 6 C13.66 6 14.32 6 15 6 C15.2475 6.598125 15.495 7.19625 15.75 7.8125 C17.16846907 10.29482087 18.69264738 11.36328035 21 13 C19.18757948 13.02687279 17.37504767 13.04633715 15.5625 13.0625 C14.55316406 13.07410156 13.54382813 13.08570313 12.50390625 13.09765625 C10 13 10 13 9 12 C8.95907063 9.66702567 8.95758277 7.33294775 9 5 C8.34 5 7.68 5 7 5 C6.67 4.34 6.34 3.68 6 3 C4.02111039 2.27306096 2.02045442 1.60183749 0 1 C0 0.67 0 0.34 0 0 Z " fill="#594434" transform="translate(53,136)"/>
<path d="M0 0 C0.78503906 0.07863281 1.57007812 0.15726563 2.37890625 0.23828125 C4.4375 0.6875 4.4375 0.6875 6.4375 2.6875 C6.1075 3.6775 5.7775 4.6675 5.4375 5.6875 C2.9625 4.6975 2.9625 4.6975 0.4375 3.6875 C-0.2225 5.0075 -0.8825 6.3275 -1.5625 7.6875 C-2.8825 7.6875 -4.2025 7.6875 -5.5625 7.6875 C-5.5625 7.0275 -5.5625 6.3675 -5.5625 5.6875 C-6.8825 5.3575 -8.2025 5.0275 -9.5625 4.6875 C-9.5625 4.0275 -9.5625 3.3675 -9.5625 2.6875 C-8.9025 2.6875 -8.2425 2.6875 -7.5625 2.6875 C-7.5625 2.0275 -7.5625 1.3675 -7.5625 0.6875 C-4.5419408 -0.31935307 -3.09173734 -0.34126261 0 0 Z " fill="#7C6D61" transform="translate(112.5625,145.3125)"/>
<path d="M0 0 C2.97 0.495 2.97 0.495 6 1 C6 1.66 6 2.32 6 3 C6.99 3 7.98 3 9 3 C9 3.66 9 4.32 9 5 C10.65 5 12.3 5 14 5 C8.51766885 8.65488743 0.65414894 7.61343166 -5.69921875 6.546875 C-7.48432031 6.09819597 -9.24694429 5.56097783 -11 5 C-11 4.67 -11 4.34 -11 4 C-7.37 4 -3.74 4 0 4 C0 2.68 0 1.36 0 0 Z " fill="#C5A77F" transform="translate(92,54)"/>
<path d="M0 0 C0 0.66 0 1.32 0 2 C0.5775 2.268125 1.155 2.53625 1.75 2.8125 C5.64168112 4.86644281 7.59206712 5.95977115 9.25 10.1875 C9.4975 11.115625 9.745 12.04375 10 13 C10.66 13 11.32 13 12 13 C12.33 15.31 12.66 17.62 13 20 C12.34 19.67 11.68 19.34 11 19 C11 18.34 11 17.68 11 17 C9.35 16.67 7.7 16.34 6 16 C5.773125 14.783125 5.54625 13.56625 5.3125 12.3125 C4.21035315 7.99575816 2.66679007 5.68897939 -1 3 C-4.68441504 2.11472891 -4.68441504 2.11472891 -8 2 C-8 1.67 -8 1.34 -8 1 C-5.23735711 0.40267181 -2.83967231 0 0 0 Z " fill="#C3AB9B" transform="translate(118,21)"/>
<path d="M0 0 C4.61710598 0.60648426 8.56846813 2.43047288 12.765625 4.36328125 C13.64992188 4.69328125 14.53421875 5.02328125 15.4453125 5.36328125 C18.18632101 6.54459132 19.18926892 7.87429797 20.765625 10.36328125 C20.105625 11.02328125 19.445625 11.68328125 18.765625 12.36328125 C18.2809375 11.96496094 17.79625 11.56664062 17.296875 11.15625 C8.16474169 3.93835232 1.38826868 2.88491024 -10.234375 3.36328125 C-7.15745061 -0.36662388 -4.60839414 -0.12801095 0 0 Z " fill="#2D1409" transform="translate(67.234375,8.63671875)"/>
<path d="M0 0 C0.33 0 0.66 0 1 0 C0.6083965 5.95507399 -0.37124595 10.62819824 -3 16 C-3.66 16 -4.32 16 -5 16 C-5.99 18.97 -6.98 21.94 -8 25 C-8.66 25 -9.32 25 -10 25 C-10.33 25.99 -10.66 26.98 -11 28 C-11.66 27.01 -12.32 26.02 -13 25 C-12.608125 24.360625 -12.21625 23.72125 -11.8125 23.0625 C-9.45939824 19.08656943 -7.23007799 15.04587271 -5 11 C-4.34 11 -3.68 11 -3 11 C-2.87625 10.29875 -2.7525 9.5975 -2.625 8.875 C-1.96161655 5.82343613 -1.02788045 2.94659062 0 0 Z " fill="#3C291C" transform="translate(74,95)"/>
<path d="M0 0 C2.875 1.875 2.875 1.875 5 4 C5 4.66 5 5.32 5 6 C2.1875 7.5625 2.1875 7.5625 -1 9 C-4 8 -4 8 -6 5 C-6 4.01 -6 3.02 -6 2 C-6.66 1.67 -7.32 1.34 -8 1 C-5.14675563 -0.42662219 -3.16545451 -0.31033868 0 0 Z " fill="#3F3632" transform="translate(79,25)"/>
<path d="M0 0 C27.45038993 -0.87261296 27.45038993 -0.87261296 37 4 C37.495 4.99 37.495 4.99 38 6 C37.01 5.67 36.02 5.34 35 5 C31.68674096 4.04768602 28.74389695 3.95855028 25.2890625 4.05859375 C21.5038915 3.96170371 17.84086248 3.17985555 14.12109375 2.51171875 C9.43602529 1.74357861 4.73192936 1.35396322 0 1 C0 0.67 0 0.34 0 0 Z " fill="#B29C90" transform="translate(39,1)"/>
<path d="M0 0 C2.5625 1.5 2.5625 1.5 4 3 C3.67 3.66 3.34 4.32 3 5 C0.525 4.01 0.525 4.01 -2 3 C-1.67 4.65 -1.34 6.3 -1 8 C-2.32 8.33 -3.64 8.66 -5 9 C-7 5.25 -7 5.25 -7 3 C-9.96175123 3.61277612 -11.38058783 4.25372522 -14 6 C-11.15056519 -0.57561879 -6.5058217 -0.81029187 0 0 Z " fill="#95552F" transform="translate(117,23)"/>
<path d="M0 0 C-2.58609091 2.01911796 -5.13144562 3.71350156 -8.0625 5.1875 C-8.73410156 5.53167969 -9.40570313 5.87585938 -10.09765625 6.23046875 C-12 7 -12 7 -15 7 C-15 6.34 -15 5.68 -15 5 C-16.32 4.34 -17.64 3.68 -19 3 C-12.47059106 0.04328652 -7.12600133 -0.35368021 0 0 Z " fill="#4D3326" transform="translate(136,5)"/>
<path d="M0 0 C2 1 2 1 2.9375 3.5 C3.288125 4.325 3.63875 5.15 4 6 C4.99 6.33 5.98 6.66 7 7 C7.05429959 8.74965358 7.09292823 10.49979787 7.125 12.25 C7.14820312 13.22453125 7.17140625 14.1990625 7.1953125 15.203125 C6.99862781 18.0196498 6.44568916 19.60949036 5 22 C4.67 22 4.34 22 4 22 C2.68 14.74 1.36 7.48 0 0 Z " fill="#AC978C" transform="translate(74,74)"/>
<path d="M0 0 C-0.33 0.99 -0.66 1.98 -1 3 C-0.360625 2.835 0.27875 2.67 0.9375 2.5 C4.97586652 1.84067485 8.91807258 1.91996221 13 2 C13 2.33 13 2.66 13 3 C10.77092605 3.47959778 8.54173703 3.9586608 6.3125 4.4375 C5.07113281 4.70433594 3.82976562 4.97117187 2.55078125 5.24609375 C-5.70984456 7 -5.70984456 7 -8 7 C-9.68756133 7.96432076 -11.35666496 8.96210419 -13 10 C-11.64844718 5.57673622 -9.80109562 3.59587018 -6 1 C-3 0 -3 0 0 0 Z " fill="#A87E5C" transform="translate(67,17)"/>
<path d="M0 0 C6.02770138 0.47587116 10.76678289 3.19722957 16 6 C15.34 6.66 14.68 7.32 14 8 C13.46632813 7.71125 12.93265625 7.4225 12.3828125 7.125 C6.62119441 4.25415915 1.44949931 2.95149917 -5 4 C-5.66 4.66 -6.32 5.32 -7 6 C-8.33333333 7.33333333 -9.66666667 8.66666667 -11 10 C-11 7.16032769 -10.59732819 4.76264289 -10 2 C-6.7 1.67 -3.4 1.34 0 1 C0 0.67 0 0.34 0 0 Z " fill="#3E2316" transform="translate(65,6)"/>
<path d="M0 0 C0.680625 0.268125 1.36125 0.53625 2.0625 0.8125 C0.23254362 4.01492367 -1.68105787 5.30400107 -4.9375 6.8125 C-9.2934321 8.88144544 -9.2934321 8.88144544 -11.9375 12.8125 C-12.45618785 15.80532887 -12.74971943 18.78211004 -12.9375 21.8125 C-13.2675 21.8125 -13.5975 21.8125 -13.9375 21.8125 C-14.55648212 12.14950138 -14.55648212 12.14950138 -12.375 7.4375 C-5.16275108 -0.3295373 -5.16275108 -0.3295373 0 0 Z " fill="#BB9068" transform="translate(62.9375,22.1875)"/>
<path d="M0 0 C1.75091019 0.08754551 3.50079551 0.19573373 5.25 0.3125 C6.22453125 0.37050781 7.1990625 0.42851562 8.203125 0.48828125 C11.28365474 1.05189772 12.56002304 2.13873552 15 4 C15.99 3.67 16.98 3.34 18 3 C18.50757862 4.41396902 19.00574925 5.83131729 19.5 7.25 C19.7784375 8.03890625 20.056875 8.8278125 20.34375 9.640625 C21 12 21 12 21 16 C20.34 16 19.68 16 19 16 C18.731875 15.071875 18.46375 14.14375 18.1875 13.1875 C17.06289965 10.1688359 16.29293427 9.0844857 14 7 C14 6.34 14 5.68 14 5 C12.35 4.67 10.7 4.34 9 4 C9 3.34 9 2.68 9 2 C6.03 1.67 3.06 1.34 0 1 C0 0.67 0 0.34 0 0 Z " fill="#795943" transform="translate(71,16)"/>
<path d="M0 0 C0.33 0 0.66 0 1 0 C1.1875 2.875 1.1875 2.875 1 6 C-1.33579943 7.55719962 -3.49323043 8.78459657 -6 10 C-6.639375 10.37125 -7.27875 10.7425 -7.9375 11.125 C-10.41109822 12.17440531 -12.33953538 12.14780359 -15 12 C-13.82035656 9.27207455 -12.79541481 7.42422123 -10.125 6 C-6.91583419 4.77296602 -4.4654325 4 -1 4 C-0.67 2.68 -0.34 1.36 0 0 Z " fill="#AE9A8E" transform="translate(118,86)"/>
<path d="M0 0 C0 4 0 4 -1.21484375 5.76953125 C-3.58253034 7.40152529 -4.76126731 7.14437321 -7.5625 6.6875 C-8.34753906 6.56761719 -9.13257813 6.44773438 -9.94140625 6.32421875 C-10.62074219 6.21722656 -11.30007812 6.11023438 -12 6 C-12.66 6 -13.32 6 -14 6 C-13 3 -13 3 -10 1 C-6.61412577 0.10898047 -3.49256685 -0.09978762 0 0 Z " fill="#A28C7A" transform="translate(52,148)"/>
<path d="M0 0 C0.33 0.66 0.66 1.32 1 2 C1.639375 1.7525 2.27875 1.505 2.9375 1.25 C7.54844669 0.87359619 10.95242713 2.94534972 15 5 C15 5.33 15 5.66 15 6 C6.81613659 6.25980519 -0.46886732 5.4011567 -8 2 C-8 1.67 -8 1.34 -8 1 C-2.25 0 -2.25 0 0 0 Z " fill="#DDB887" transform="translate(71,52)"/>
<path d="M0 0 C0.680625 0.825 1.36125 1.65 2.0625 2.5 C4.81093492 5.26240253 4.81093492 5.26240253 8.4375 5.625 C13.05617298 4.81470649 14.68384673 3.23527148 18 0 C19 3 19 3 18 6 C13.76962446 8.51178548 8.78115893 8.89052327 4 8 C0.9375 5.5 0.9375 5.5 -1 3 C-0.67 2.01 -0.34 1.02 0 0 Z " fill="#E2A728" transform="translate(67,37)"/>
<path d="M0 0 C1.5625 1.1875 1.5625 1.1875 3 3 C3 6.6255992 2.03449839 7.95897488 -0.3125 10.75 C-2.74479578 12.78634065 -3.92000563 13.6577784 -7 14 C-7 12.68 -7 11.36 -7 10 C-6.401875 9.566875 -5.80375 9.13375 -5.1875 8.6875 C-2.0528821 6.26936619 -1.38734765 3.67647128 0 0 Z " fill="#D3BDAF" transform="translate(125,35)"/>
<path d="M0 0 C-0.99 0.7734375 -0.99 0.7734375 -2 1.5625 C-4.68675779 4.83698606 -4.37584533 6.86570136 -4 11 C-3.67 11.99 -3.34 12.98 -3 14 C-3.99 15.485 -3.99 15.485 -5 17 C-8.36078316 13.13867467 -8.56567612 10.34014388 -8.42578125 5.35546875 C-8 3 -8 3 -5.6875 0.3125 C-3 -1 -3 -1 0 0 Z " fill="#CF7C34" transform="translate(110,26)"/>
<path d="M0 0 C0.33 0 0.66 0 1 0 C1.33559371 6.87345643 1.14440341 11.84220998 -2 18 C-2 18.66 -2 19.32 -2 20 C-3.32 20.33 -4.64 20.66 -6 21 C-5.53316709 15.63142148 -4.05740775 11.28108058 -1.9375 6.33203125 C-1.09136753 4.22727672 -0.48799702 2.21123651 0 0 Z " fill="#68584C" transform="translate(75,97)"/>
<path d="M0 0 C0.33 0.66 0.66 1.32 1 2 C-0.98 2 -2.96 2 -5 2 C-5 2.66 -5 3.32 -5 4 C-9.62 4.33 -14.24 4.66 -19 5 C-14.67111516 -1.49332726 -7.03804304 -0.22541775 0 0 Z " fill="#7C583F" transform="translate(123,16)"/>
<path d="M0 0 C0.763125 0.0825 1.52625 0.165 2.3125 0.25 C1.3225 0.745 1.3225 0.745 0.3125 1.25 C0.9725 4.22 1.6325 7.19 2.3125 10.25 C-0.3275 9.92 -2.9675 9.59 -5.6875 9.25 C-5.93285485 6.30574183 -5.86327792 4.59230436 -4.5 1.9375 C-2.6875 0.25 -2.6875 0.25 0 0 Z " fill="#563E32" transform="translate(94.6875,42.75)"/>
<path d="M0 0 C3.28330144 2.92348758 3.95866933 5.75457495 5 10 C4.01 9.67 3.02 9.34 2 9 C1.87882812 9.63808594 1.75765625 10.27617188 1.6328125 10.93359375 C1.46523438 11.75988281 1.29765625 12.58617187 1.125 13.4375 C0.96257813 14.26121094 0.80015625 15.08492187 0.6328125 15.93359375 C0.42398438 16.61550781 0.21515625 17.29742187 0 18 C-0.66 18.33 -1.32 18.66 -2 19 C-2.21432579 12.35590042 -1.51233701 6.46794133 0 0 Z " fill="#725D50" transform="translate(47,41)"/>
<path d="M0 0 C-1.26714844 0.03738281 -2.53429687 0.07476562 -3.83984375 0.11328125 C-5.53908931 0.17899793 -7.2383068 0.24544323 -8.9375 0.3125 C-9.76830078 0.33505859 -10.59910156 0.35761719 -11.45507812 0.38085938 C-17.40730322 0.63562387 -22.45578827 1.83008856 -28 4 C-21.54945444 -2.97831746 -8.20885366 -5.00102492 0 0 Z " fill="#AA8F81" transform="translate(136,5)"/>
<path d="M0 0 C0.66 0.33 1.32 0.66 2 1 C0.8553125 2.0828125 0.8553125 2.0828125 -0.3125 3.1875 C-2.72363662 5.71078251 -4.29220419 7.99102642 -6 11 C-8.5654594 13.5654594 -10.47686668 13.54046087 -14 14 C-12.60116798 10.65433992 -11.08768972 9.05711286 -8.125 7 C-5.14252753 4.86346517 -2.49889737 2.70713882 0 0 Z " fill="#D0B194" transform="translate(66,22)"/>
<path d="M0 0 C-2.36543716 2.36543716 -4.57067205 3.27541323 -7.625 4.625 C-8.62789062 5.07101563 -9.63078125 5.51703125 -10.6640625 5.9765625 C-11.43492188 6.31429688 -12.20578125 6.65203125 -13 7 C-13 6.34 -13 5.68 -13 5 C-13.9075 5.350625 -14.815 5.70125 -15.75 6.0625 C-19.00591313 7.00170571 -19.92749994 6.95514676 -23 6 C-20.48425692 4.98524649 -17.96365897 3.98820668 -15.4375 3 C-14.73302734 2.71382813 -14.02855469 2.42765625 -13.30273438 2.1328125 C-8.63528884 0.32605939 -5.00267527 -0.31554325 0 0 Z " fill="#D1BBB0" transform="translate(124,5)"/>
<path d="M0 0 C3.03732545 0.54139638 6.01799757 1.21043907 9 2 C9 2.33 9 2.66 9 3 C8.41992188 3.06058594 7.83984375 3.12117188 7.2421875 3.18359375 C2.79907137 3.66016561 -1.59905423 4.21008666 -6 5 C-5.34 3.68 -4.68 2.36 -4 1 C-8.455 2.485 -8.455 2.485 -13 4 C-9.41007046 -0.99468458 -5.6375659 -0.62639621 0 0 Z " fill="#8F6748" transform="translate(71,16)"/>
<path d="M0 0 C4.22706923 6.34060384 4.2354184 13.58432038 4 21 C1.89172945 17.83759418 1.66182535 16.49342531 1.375 12.8125 C1.30023438 11.91144531 1.22546875 11.01039062 1.1484375 10.08203125 C1.07496094 9.05142578 1.07496094 9.05142578 1 8 C0.34 8 -0.32 8 -1 8 C-1.66 6.35 -2.32 4.7 -3 3 C-2.34 3 -1.68 3 -1 3 C-0.67 2.01 -0.34 1.02 0 0 Z " fill="#A2836E" transform="translate(129,26)"/>
<path d="M0 0 C6.77299898 -0.25939145 13.49710284 -0.12822089 20 2 C20.33 2.66 20.66 3.32 21 4 C13.74 3.34 6.48 2.68 -1 2 C-0.67 1.34 -0.34 0.68 0 0 Z " fill="#5A3E2B" transform="translate(60,13)"/>
<path d="M0 0 C0.99 0.33 1.98 0.66 3 1 C2.5 3.3125 2.5 3.3125 1 6 C-2.2815417 7.91543734 -5.45830685 9.29340181 -9.2578125 8.5703125 C-9.83273438 8.38210937 -10.40765625 8.19390625 -11 8 C-8.427824 6.4566944 -5.85823981 4.91945444 -3.25 3.4375 C-0.88495578 2.19737444 -0.88495578 2.19737444 0 0 Z " fill="#E1CAB3" transform="translate(116,46)"/>
<path d="M0 0 C2.64 0 5.28 0 8 0 C7.01 0.495 7.01 0.495 6 1 C6.33 2.65 6.66 4.3 7 6 C5.00045254 6.04254356 2.99958364 6.04080783 1 6 C0 5 0 5 -0.0625 2.4375 C-0.041875 1.633125 -0.02125 0.82875 0 0 Z " fill="#A49181" transform="translate(97,147)"/>
<path d="M0 0 C4.9745353 -0.31090846 8.40430494 0.30528973 13 2.19921875 C15.94105051 3.3767878 18.94409661 4.1723595 22 5 C21.67 5.66 21.34 6.32 21 7 C17.04821379 6.59468859 13.97544892 5.59072774 10.4375 3.875 C7.45555335 2.47469397 6.29279244 1.97609858 2.9375 2.25 C2.298125 2.4975 1.65875 2.745 1 3 C0.67 2.01 0.34 1.02 0 0 Z " fill="#E2C095" transform="translate(71,52)"/>
<path d="M0 0 C3.86583049 -0.20784035 6.56390423 0.38304244 10.125 1.875 C10.97320312 2.22304687 11.82140625 2.57109375 12.6953125 2.9296875 C15 4 15 4 18 6 C12.8189366 7.36139053 10.2813915 6.59764648 5.625 4.0625 C4.56539063 3.49660156 3.50578125 2.93070312 2.4140625 2.34765625 C1.61742188 1.90292969 0.82078125 1.45820312 0 1 C0 0.67 0 0.34 0 0 Z " fill="#D6C4BA" transform="translate(65,4)"/>
<path d="M0 0 C0.99 0.33 1.98 0.66 3 1 C1.6393389 6.19525146 -0.35767388 9.17555757 -4 13 C-4.66 13 -5.32 13 -6 13 C-4.80023986 9.91490251 -3.51795039 6.94102888 -2 4 C-1.62875 3.2575 -1.2575 2.515 -0.875 1.75 C-0.441875 0.88375 -0.441875 0.88375 0 0 Z " fill="#4F301A" transform="translate(120,96)"/>
<path d="M0 0 C0.99 0.495 0.99 0.495 2 1 C2 4.96 2 8.92 2 13 C2.66 13 3.32 13 4 13 C3.67 15.31 3.34 17.62 3 20 C2.01 20 1.02 20 0 20 C0 13.4 0 6.8 0 0 Z " fill="#C9B8AF" transform="translate(88,26)"/>
<path d="M0 0 C2.31 0.66 4.62 1.32 7 2 C6.01 2.495 6.01 2.495 5 3 C4.34 2.67 3.68 2.34 3 2 C2.67 4.31 2.34 6.62 2 9 C1.01 8.67 0.02 8.34 -1 8 C-1.04241723 5.66705225 -1.04092937 3.33297433 -1 1 C-0.67 0.67 -0.34 0.34 0 0 Z " fill="#B8A394" transform="translate(62,150)"/>
<path d="M0 0 C0.33 0 0.66 0 1 0 C1 3.96 1 7.92 1 12 C-0.65 12.66 -2.3 13.32 -4 14 C-4.33 13.01 -4.66 12.02 -5 11 C-4.02989215 9.22146894 -3.0527334 7.44487988 -1.9921875 5.71875 C-0.9129721 3.849243 -0.34099325 2.13120784 0 0 Z " fill="#8D7765" transform="translate(81,140)"/>
<path d="M0 0 C0 1.98 0 3.96 0 6 C-0.33 5.01 -0.66 4.02 -1 3 C-9.415 3.495 -9.415 3.495 -18 4 C-14.66571094 2.33285547 -12.54750523 1.63673171 -9 1 C-5.8035914 -0.06546953 -3.34252724 -0.07427838 0 0 Z " fill="#89796D" transform="translate(122,65)"/>
<path d="M0 0 C4 4.75 4 4.75 4 7 C-1.42039575 7.40652968 -5.07015675 6.03993514 -10 4 C-6.90226756 3.15937603 -4.21667249 2.91064799 -1 3 C-0.67 2.01 -0.34 1.02 0 0 Z " fill="#D9C1A9" transform="translate(88,49)"/>
<path d="M0 0 C1.8125 1.4375 1.8125 1.4375 3 3 C1.35 3 -0.3 3 -2 3 C-2.33 4.65 -2.66 6.3 -3 8 C-3.99 8 -4.98 8 -6 8 C-6.99 8.495 -6.99 8.495 -8 9 C-7.690625 8.4225 -7.38125 7.845 -7.0625 7.25 C-6.07416636 5.15705816 -5.4831387 3.25464725 -5 1 C-2.6875 0.3125 -2.6875 0.3125 0 0 Z " fill="#845D37" transform="translate(60,60)"/>
<path d="M0 0 C0.66 0.33 1.32 0.66 2 1 C-0.57133568 4.20745009 -3.12574306 4.75441706 -7.0625 5.625 C-11.14814692 6.48545139 -11.14814692 6.48545139 -15 8 C-14.67 7.01 -14.34 6.02 -14 5 C-11.34765625 3.8671875 -11.34765625 3.8671875 -8.0625 2.875 C-3.94197225 1.66024899 -3.94197225 1.66024899 0 0 Z " fill="#3A2415" transform="translate(51,124)"/>
<path d="M0 0 C0.33 0 0.66 0 1 0 C1.33 2.64 1.66 5.28 2 8 C1.01 8 0.02 8 -1 8 C-1.433125 9.4540625 -1.433125 9.4540625 -1.875 10.9375 C-3 14 -3 14 -5 15 C-4.54705135 13.24859857 -4.08741252 11.49892656 -3.625 9.75 C-3.36976562 8.77546875 -3.11453125 7.8009375 -2.8515625 6.796875 C-2.10401491 4.34162697 -1.22876183 2.24382595 0 0 Z " fill="#60422B" transform="translate(121,89)"/>
<path d="M0 0 C1.45947705 0.06006078 2.91779272 0.1488689 4.375 0.25 C5.59316406 0.31960937 5.59316406 0.31960937 6.8359375 0.390625 C9 1 9 1 10.2890625 3.046875 C10.64097656 4.01367188 10.64097656 4.01367188 11 5 C3.49230769 4.50769231 3.49230769 4.50769231 1 1.9375 C0.67 1.298125 0.34 0.65875 0 0 Z " fill="#CEBAB0" transform="translate(83,86)"/>
<path d="M0 0 C1.32 0 2.64 0 4 0 C6.15305957 3.85756507 7.39253254 6.55129785 7 11 C6.01 11 5.02 11 4 11 C3.87882812 10.37351562 3.75765625 9.74703125 3.6328125 9.1015625 C3.46523437 8.28429688 3.29765625 7.46703125 3.125 6.625 C2.96257812 5.81289063 2.80015625 5.00078125 2.6328125 4.1640625 C2.13341068 1.81326077 2.13341068 1.81326077 0 0 Z " fill="#997156" transform="translate(122,18)"/>
<path d="M0 0 C0.33 0 0.66 0 1 0 C0.6083965 5.95507399 -0.37124595 10.62819824 -3 16 C-5 13 -5 13 -5 11 C-4.34 11 -3.68 11 -3 11 C-2.87625 10.29875 -2.7525 9.5975 -2.625 8.875 C-1.96161655 5.82343613 -1.02788045 2.94659062 0 0 Z " fill="#4C3829" transform="translate(74,95)"/>
<path d="M0 0 C0 1.65 0 3.3 0 5 C-1.32 5 -2.64 5 -4 5 C-3.67 6.32 -3.34 7.64 -3 9 C-3.66 9 -4.32 9 -5 9 C-5.33 9.66 -5.66 10.32 -6 11 C-6.48951049 4.63636364 -6.48951049 4.63636364 -4.125 1.5625 C-2 0 -2 0 0 0 Z " fill="#2C2724" transform="translate(111,26)"/>
<path d="M0 0 C0.928125 0.20625 1.85625 0.4125 2.8125 0.625 C2.4825 1.615 2.1525 2.605 1.8125 3.625 C-2.6425 4.12 -2.6425 4.12 -7.1875 4.625 C-5.78075725 0.40477175 -4.42930454 -0.52109465 0 0 Z " fill="#381F13" transform="translate(118.1875,9.375)"/>
<path d="M0 0 C10.55808656 0.96355353 10.55808656 0.96355353 15 2 C15 2.66 15 3.32 15 4 C13.06372231 4.10807131 11.12572244 4.1856225 9.1875 4.25 C7.56908203 4.31960937 7.56908203 4.31960937 5.91796875 4.390625 C3 4 3 4 1.11328125 1.984375 C0.74589844 1.32953125 0.37851563 0.6746875 0 0 Z " fill="#917E74" transform="translate(64,62)"/>
<path d="M0 0 C0.66 0 1.32 0 2 0 C2.50757862 1.41396902 3.00574925 2.83131729 3.5 4.25 C3.7784375 5.03890625 4.056875 5.8278125 4.34375 6.640625 C5 9 5 9 5 13 C4.34 13 3.68 13 3 13 C2.49487756 11.39743892 1.99608373 9.79288208 1.5 8.1875 C1.2215625 7.29417969 0.943125 6.40085937 0.65625 5.48046875 C0 3 0 3 0 0 Z " fill="#523B32" transform="translate(87,19)"/>
<path d="M0 0 C0.2475 0.61875 0.495 1.2375 0.75 1.875 C2.20628639 4.35068687 3.37812506 4.95125002 6 6 C2.68885166 7.12880057 -0.58978257 8.21302675 -4 9 C-3.71125 8.443125 -3.4225 7.88625 -3.125 7.3125 C-1.9586747 4.91505355 -0.9660119 2.48403061 0 0 Z " fill="#CAB5A3" transform="translate(102,48)"/>
<path d="M0 0 C3.55781542 0.96157174 4.78016654 1.65887911 6.8125 4.8125 C7.94240009 7.84538973 8.28140158 9.81078211 8 13 C7.34 13 6.68 13 6 13 C5.62875 11.1746875 5.62875 11.1746875 5.25 9.3125 C4.2950075 5.41640742 2.77218915 2.95700176 0 0 Z " fill="#DA752E" transform="translate(115,25)"/>
<path d="M0 0 C2.05078125 0.03255208 4.1015625 0.06510417 6.15234375 0.09765625 C6.15234375 0.42765625 6.15234375 0.75765625 6.15234375 1.09765625 C5.5490625 1.24460937 4.94578125 1.3915625 4.32421875 1.54296875 C-1.41270588 3.11713016 -1.41270588 3.11713016 -5.41015625 7.28515625 C-6.12171875 8.67734375 -6.12171875 8.67734375 -6.84765625 10.09765625 C-7.66015625 8.41015625 -7.66015625 8.41015625 -7.84765625 6.09765625 C-5.47265625 3.41015625 -5.47265625 3.41015625 -2.84765625 1.09765625 C-1.84765625 0.09765625 -1.84765625 0.09765625 0 0 Z " fill="#DBC9BF" transform="translate(108.84765625,20.90234375)"/>
<path d="M0 0 C2 1.375 2 1.375 4 3 C4 3.66 4 4.32 4 5 C3.47921875 4.83628906 2.9584375 4.67257813 2.421875 4.50390625 C-0.6756875 3.85941341 -3.58841094 3.90588411 -6.75 3.9375 C-8.50570312 3.95103516 -8.50570312 3.95103516 -10.296875 3.96484375 C-11.18890625 3.97644531 -12.0809375 3.98804688 -13 4 C-12.67 3.34 -12.34 2.68 -12 2 C-9.53125 1.62109375 -9.53125 1.62109375 -6.5 1.4375 C-2.93669646 1.50678967 -2.93669646 1.50678967 0 0 Z " fill="#543726" transform="translate(123,13)"/>
<path d="M0 0 C0.66 0.33 1.32 0.66 2 1 C2 3.31 2 5.62 2 8 C0.68 7.67 -0.64 7.34 -2 7 C-2 5.02 -2 3.04 -2 1 C-1.34 0.67 -0.68 0.34 0 0 Z " fill="#775B4E" transform="translate(97,43)"/>
<path d="M0 0 C1.98 0.495 1.98 0.495 4 1 C4.33 2.32 4.66 3.64 5 5 C3.68 5.33 2.36 5.66 1 6 C-0.0625 4.125 -0.0625 4.125 -1 2 C-0.67 1.34 -0.34 0.68 0 0 Z " fill="#D4D4D5" transform="translate(111,26)"/>
<path d="M0 0 C0 1.32 0 2.64 0 4 C-2.64 4.33 -5.28 4.66 -8 5 C-6.44843568 0.34530705 -4.78780941 0 0 0 Z " fill="#504440" transform="translate(46,149)"/>
<path d="M0 0 C0.94696598 2.55680815 1.04509772 3.83600828 0.3125 6.5 C-1.11219358 9.21370205 -2.73212969 10.95891672 -5 13 C-4.54803755 11.39402675 -4.08817673 9.79027492 -3.625 8.1875 C-3.36976562 7.29417969 -3.11453125 6.40085937 -2.8515625 5.48046875 C-2 3 -2 3 0 0 Z " fill="#503A29" transform="translate(69,111)"/>
<path d="M0 0 C1.65 0.33 3.3 0.66 5 1 C4.67 2.32 4.34 3.64 4 5 C2.35 4.67 0.7 4.34 -1 4 C-0.67 2.68 -0.34 1.36 0 0 Z " fill="#E8EAEB" transform="translate(74,26)"/>
<path d="M0 0 C0.66 0.33 1.32 0.66 2 1 C-3.0022779 8.66742597 -3.0022779 8.66742597 -7 10 C-5.6062718 5.56541027 -3.39417765 3.12621626 0 0 Z " fill="#805C42" transform="translate(58,17)"/>
<path d="M0 0 C3.09419131 0.42656547 6.05342386 0.9461151 9 2 C10.625 4.4375 10.625 4.4375 11 7 C10.67 7.99 10.34 8.98 10 10 C9.46375 9.071875 8.9275 8.14375 8.375 7.1875 C5.82105369 3.75983521 3.90189922 2.5962315 0 1 C0 0.67 0 0.34 0 0 Z " fill="#DFCFC5" transform="translate(78,21)"/>
<path d="M0 0 C0.33 0.66 0.66 1.32 1 2 C0.54625 2.845625 0.0925 3.69125 -0.375 4.5625 C-2.34959508 8.73952806 -2.70605529 12.43878905 -3 17 C-3.33 17 -3.66 17 -4 17 C-4.44534366 10.04769059 -4.67289916 5.40303965 0 0 Z " fill="#A07E62" transform="translate(53,27)"/>
<path d="M0 0 C3 2 3 2 3.58203125 3.875 C3.65808594 4.57625 3.73414063 5.2775 3.8125 6 C3.90144531 6.70125 3.99039063 7.4025 4.08203125 8.125 C4 10 4 10 2 12 C0.86235649 7.73383684 0 4.43513689 0 0 Z " fill="#775942" transform="translate(29,112)"/>
<path d="M0 0 C1.0209375 0.433125 1.0209375 0.433125 2.0625 0.875 C5.32893093 2.12597355 8.62846123 3.07447955 12 4 C12 4.33 12 4.66 12 5 C8.7 5 5.4 5 2 5 C1.34 3.35 0.68 1.7 0 0 Z " fill="#BDA79B" transform="translate(71,68)"/>
<path d="M0 0 C-3.7367843 2.49118953 -5.74451819 2.2065226 -10.1875 2.125 C-11.45980469 2.10695313 -12.73210937 2.08890625 -14.04296875 2.0703125 C-15.50669922 2.03550781 -15.50669922 2.03550781 -17 2 C-17 1.67 -17 1.34 -17 1 C-15.10630916 0.63455089 -13.20991218 0.28310825 -11.3125 -0.0625 C-10.25675781 -0.25972656 -9.20101562 -0.45695312 -8.11328125 -0.66015625 C-5.08840784 -0.99034946 -2.92019489 -0.77474558 0 0 Z " fill="#938275" transform="translate(120,68)"/>
<path d="M0 0 C0.99 0.33 1.98 0.66 3 1 C2.2884375 1.8353125 2.2884375 1.8353125 1.5625 2.6875 C-0.16230648 4.91209217 -0.16230648 4.91209217 -0.5 7.625 C-1 10 -1 10 -4 12 C-3.71640113 10.5608866 -3.42278601 9.12374482 -3.125 7.6875 C-2.96257813 6.88699219 -2.80015625 6.08648437 -2.6328125 5.26171875 C-2 3 -2 3 0 0 Z " fill="#60493E" transform="translate(49,50)"/>
<path d="M0 0 C0.99 0.99 1.98 1.98 3 3 C3.66 2.67 4.32 2.34 5 2 C5.33 3.32 5.66 4.64 6 6 C3.69 6 1.38 6 -1 6 C-0.67 4.02 -0.34 2.04 0 0 Z " fill="#5F524A" transform="translate(65,153)"/>
<path d="M0 0 C0.99 0.33 1.98 0.66 3 1 C3 1.66 3 2.32 3 3 C4.32 2.67 5.64 2.34 7 2 C7 2.66 7 3.32 7 4 C6.01 4 5.02 4 4 4 C3.67 4.99 3.34 5.98 3 7 C2.34 7 1.68 7 1 7 C0.67 4.69 0.34 2.38 0 0 Z " fill="#CAB5AC" transform="translate(96,88)"/>
<path d="M0 0 C1.32 0.33 2.64 0.66 4 1 C4 2.98 4 4.96 4 7 C3.01 7.33 2.02 7.66 1 8 C-0.35439668 5.29120665 -0.06501451 2.99066732 0 0 Z " fill="#BEADA5" transform="translate(98,30)"/>
<path d="M0 0 C0.33 0.66 0.66 1.32 1 2 C-0.65 2 -2.3 2 -4 2 C-4.33 3.32 -4.66 4.64 -5 6 C-5.66 6 -6.32 6 -7 6 C-7 5.34 -7 4.68 -7 4 C-7.66 3.67 -8.32 3.34 -9 3 C-5.92807025 0.26939578 -4.09590633 -0.34132553 0 0 Z " fill="#8A7465" transform="translate(66,149)"/>
<path d="M0 0 C3.16115776 1.36983503 3.9927092 1.9890638 6 5 C5.34 5.66 4.68 6.32 4 7 C2.35 5.35 0.7 3.7 -1 2 C-0.67 1.34 -0.34 0.68 0 0 Z " fill="#331C14" transform="translate(82,14)"/>
<path d="M0 0 C2.64 0.33 5.28 0.66 8 1 C5.68055212 4.47917182 3.73630036 5.29429766 0 7 C0.185625 6.21625 0.37125 5.4325 0.5625 4.625 C1.25962266 2.02910225 1.25962266 2.02910225 0 0 Z " fill="#746356" transform="translate(88,146)"/>
<path d="M0 0 C1.32 0.33 2.64 0.66 4 1 C4 4.3 4 7.6 4 11 C2.16163081 7.32326162 1.06348187 3.95007553 0 0 Z " fill="#C2ACA1" transform="translate(77,80)"/>
<path d="M0 0 C2.375 -0.125 2.375 -0.125 5 0 C5.66 0.66 6.32 1.32 7 2 C6.67 2.99 6.34 3.98 6 5 C3.5625 4.1875 3.5625 4.1875 1 3 C0.67 2.01 0.34 1.02 0 0 Z " fill="#383534" transform="translate(112,146)"/>
<path d="M0 0 C3.125 -0.1875 3.125 -0.1875 6 0 C5.67 1.32 5.34 2.64 5 4 C4.401875 3.835 3.80375 3.67 3.1875 3.5 C0.88655664 2.8885876 0.88655664 2.8885876 -2 3 C-1.34 2.01 -0.68 1.02 0 0 Z " fill="#BAA69B" transform="translate(100,92)"/>
<path d="M0 0 C2 1 2 1 3.1875 4.3125 C3.90649268 7.57562063 4.20286847 8.99282882 3 12 C-0.42857143 4.71428571 -0.42857143 4.71428571 0 0 Z " fill="#99724E" transform="translate(72,72)"/>
<path d="M0 0 C0.33 0.66 0.66 1.32 1 2 C0.06421005 4.35981813 -0.93347808 6.69631264 -2 9 C-2.99 8.67 -3.98 8.34 -5 8 C-3.8141763 4.62496331 -2.72426311 2.35277269 0 0 Z " fill="#755E52" transform="translate(44,60)"/>
<path d="M0 0 C0.66 0.66 1.32 1.32 2 2 C1.01 4.31 0.02 6.62 -1 9 C-1.33 9 -1.66 9 -2 9 C-2 6.36 -2 3.72 -2 1 C-1.34 0.67 -0.68 0.34 0 0 Z " fill="#6C5144" transform="translate(34,89)"/>
<path d="M0 0 C0.33 1.32 0.66 2.64 1 4 C-2.34373475 3.44271087 -5.03312999 2.64826111 -8 1 C-2.25 0 -2.25 0 0 0 Z " fill="#CDAB7E" transform="translate(71,52)"/>
<path d="M0 0 C3.96 0.33 7.92 0.66 12 1 C12 1.33 12 1.66 12 2 C10.02 2 8.04 2 6 2 C6 2.66 6 3.32 6 4 C4.02 3.34 2.04 2.68 0 2 C0 1.34 0 0.68 0 0 Z " fill="#503629" transform="translate(38,1)"/>
<path d="M0 0 C0.66 0 1.32 0 2 0 C2.33 2.64 2.66 5.28 3 8 C1.68 8.33 0.36 8.66 -1 9 C-0.67 6.03 -0.34 3.06 0 0 Z " fill="#765E4A" transform="translate(60,141)"/>
<path d="M0 0 C2.31 0 4.62 0 7 0 C6.67 1.32 6.34 2.64 6 4 C5.34 4 4.68 4 4 4 C4 3.34 4 2.68 4 2 C2.68 2 1.36 2 0 2 C0 1.34 0 0.68 0 0 Z " fill="#413126" transform="translate(62,138)"/>
<path d="M0 0 C0 2.62113708 -0.31292445 4.50935112 -1 7 C-1.99 7 -2.98 7 -4 7 C-3.39816251 4.97954558 -2.72693904 2.97888961 -2 1 C-1.34 0.67 -0.68 0.34 0 0 Z " fill="#756457" transform="translate(115,104)"/>
<path d="M0 0 C2.31 0 4.62 0 7 0 C7.33 0.66 7.66 1.32 8 2 C6.35 2 4.7 2 3 2 C2.67 3.65 2.34 5.3 2 7 C0.5393715 4.35261084 0 3.10551666 0 0 Z " fill="#9F7140" transform="translate(58,63)"/>
<path d="M0 0 C0.66 0.99 1.32 1.98 2 3 C1.67 3.99 1.34 4.98 1 6 C-0.98 6 -2.96 6 -5 6 C-3.35 4.02 -1.7 2.04 0 0 Z " fill="#D99F29" transform="translate(84,37)"/>
<path d="M0 0 C1.22589844 0.01353516 1.22589844 0.01353516 2.4765625 0.02734375 C3.41628906 0.04474609 3.41628906 0.04474609 4.375 0.0625 C4.375 0.3925 4.375 0.7225 4.375 1.0625 C2.51875 1.2171875 2.51875 1.2171875 0.625 1.375 C-2.9042866 1.80051682 -4.99660966 2.54362592 -7.625 5.0625 C-7.25 3.125 -7.25 3.125 -6.625 1.0625 C-4.21954362 -0.14022819 -2.67503047 -0.03821472 0 0 Z " fill="#A98A75" transform="translate(110.625,19.9375)"/>
<path d="M0 0 C1.65 0 3.3 0 5 0 C5 0.99 5 1.98 5 3 C3.02 3 1.04 3 -1 3 C-0.67 2.01 -0.34 1.02 0 0 Z " fill="#7C6756" transform="translate(50,152)"/>
<path d="M0 0 C4.75 0.875 4.75 0.875 7 2 C7 2.66 7 3.32 7 4 C5.68 4 4.36 4 3 4 C3 3.34 3 2.68 3 2 C2.01 2 1.02 2 0 2 C0 1.34 0 0.68 0 0 Z " fill="#453934" transform="translate(104,149)"/>
<path d="M0 0 C0.99 0.33 1.98 0.66 3 1 C3 2.98 3 4.96 3 7 C1.02 7.99 1.02 7.99 -1 9 C-1 8.34 -1 7.68 -1 7 C-0.34 7 0.32 7 1 7 C0.67 4.69 0.34 2.38 0 0 Z " fill="#604538" transform="translate(98,44)"/>
</svg>
